PathFileType	4	(X/Y/Z)	/Users/itak/Documents/Research/Walk-IL/dataset/trc/00334_00011.trc
DataRate	CameraRate	NumFrames	NumMarkers	Units	OrigDataRate	OrigDataStartFrame	OrigNumFrames
100.000000	100.000000	4	54	mm	100.000000	363	582
Frame#	Time	RPSI			LPSI			L3			STRN			T10			C7			CLAV			RBAK			LBAK			LSHO			LUPA			LAEL			LAOL			LWTS			LWPS			LFRA			LHPS			LHTS			RSHO			RUPA			RAEL			RAOL			RWTS			RWPS			RFRA			RIFD			RHTS			RHPS			RBHD			LFHD			RFHD			LBHD			LHIP			RHIP			RASI			LASI			LKNE			LTHI			LANK			LTIP			LTOE			LMT1			LMT5			LHEE			RKNE			RTHI			RANK			RTIP			RTOE			RMT1			RMT5			RHEE			LIFD			*53			
		X1	Y1	Z1	X2	Y2	Z2	X3	Y3	Z3	X4	Y4	Z4	X5	Y5	Z5	X6	Y6	Z6	X7	Y7	Z7	X8	Y8	Z8	X9	Y9	Z9	X10	Y10	Z10	X11	Y11	Z11	X12	Y12	Z12	X13	Y13	Z13	X14	Y14	Z14	X15	Y15	Z15	X16	Y16	Z16	X17	Y17	Z17	X18	Y18	Z18	X19	Y19	Z19	X20	Y20	Z20	X21	Y21	Z21	X22	Y22	Z22	X23	Y23	Z23	X24	Y24	Z24	X25	Y25	Z25	X26	Y26	Z26	X27	Y27	Z27	X28	Y28	Z28	X29	Y29	Z29	X30	Y30	Z30	X31	Y31	Z31	X32	Y32	Z32	X33	Y33	Z33	X34	Y34	Z34	X35	Y35	Z35	X36	Y36	Z36	X37	Y37	Z37	X38	Y38	Z38	X39	Y39	Z39	X40	Y40	Z40	X41	Y41	Z41	X42	Y42	Z42	X43	Y43	Z43	X44	Y44	Z44	X45	Y45	Z45	X46	Y46	Z46	X47	Y47	Z47	X48	Y48	Z48	X49	Y49	Z49	X50	Y50	Z50	X51	Y51	Z51	X52	Y52	Z52	X53	Y53	Z53	X54	Y54	Z54	

364	3.63	-608.48291015625	945.4869995117188	91.97529602050781	-604.8599243164062	954.3411254882812	-38.85604095458984	-602.3588256835938	1025.0205078125	26.43640327453613	-342.9921875	1176.671997070312	16.47350120544434	-589.463623046875	1143.915893554688	13.19334602355957	-515.6914672851562	1384.456176757812	-3.127901315689087	-369.4886779785156	1306.166748046875	9.999138832092285	-584.6559448242188	1255.754638671875	63.70155715942383	-525.6187744140625	1347.501342773438	-105.244987487793	-435.2585754394531	1353.439819335938	-156.7105102539062	-453.6077575683594	1233.143798828125	-223.9398040771484	-423.9453735351562	1029.541259765625	-233.5638732910156	-491.9530639648438	1012.116577148438	-185.8455505371094	-304.2788391113281	805.442138671875	-167.8171539306641	-335.4418334960938	784.6046142578125	-226.2047424316406	-397.4556884765625	926.1028442382812	-235.5224456787109	-326.3522644042969	715.321533203125	-216.5716247558594	-274.3503723144531	732.7782592773438	-179.9641723632812	-466.373779296875	1365.295654296875	162.8412322998047	-489.9183349609375	1302.578979492188	226.3704223632812	-523.0197143554688	1036.616333007812	264.8029174804688	-552.7462768554688	1031.005859375	174.9763031005859	-426.2982482910156	799.74853515625	237.0851287841797	-472.6706848144531	788.1891479492188	297.7778015136719	-506.4691772460938	966.9988403320312	279.0168762207031	-440.8930053710938	623.4542846679688	246.8731994628906	-415.76904296875	693.5990600585938	253.1193695068359	-469.9920959472656	703.0487060546875	294.7266235351562	-461.1324462890625	1578.245727539062	80.99064636230469	-284.7727661132812	1582.803588867188	-29.4371509552002	-299.1826171875	1584.076782226562	70.38082885742188	-467.9911193847656	1572.56005859375	-63.65498352050781	-519.6107788085938	897.2926025390625	-144.0627288818359	-525.1073608398438	893.7847900390625	199.0809783935547	-421.2633056640625	923.426513671875	155.0688934326172	-396.7572326660156	915.0182495117188	-83.06436157226562	-477.662841796875	432.375244140625	-103.8400115966797	-477.8666076660156	575.1248168945312	-123.2169799804688	-687.6646118164062	54.53173828125	-72.49610900878906	-582.5302124023438	231.9903717041016	-98.351318359375	-485.4854431152344	47.93606185913086	-11.68868827819824	-552.7376098632812	29.28528594970703	26.55722618103027	-562.6101684570312	54.27812194824219	-86.02127075195312	-726.4671020507812	54.4734992980957	-5.712179660797119	-280.2076110839844	489.9588317871094	189.2627105712891	-386.885986328125	722.6603393554688	220.6667327880859	-221.3283081054688	69.76344299316406	175.6002349853516	-235.2114410400391	380.0113525390625	184.6236724853516	-24.97140693664551	75.40924835205078	137.0242156982422	-78.33237457275391	73.10547637939453	92.14057159423828	-121.5876388549805	55.66062545776367	198.61279296875	-269.8141174316406	69.96066284179688	125.5161895751953	-272.513916015625	647.9187622070312	-154.491455078125	nan	nan	nan	
365	3.64	-615.8015747070312	947.8013916015625	90.91268920898438	-611.7090454101562	956.257568359375	-39.8786735534668	-609.6264038085938	1027.019287109375	25.34574699401855	-350.3126220703125	1178.991455078125	16.49976921081543	-596.8043212890625	1145.853149414062	12.20721244812012	-523.2874755859375	1386.4423828125	-3.643601655960083	-377.1136474609375	1308.293701171875	10.04362678527832	-592.3472290039062	1257.689086914062	62.824462890625	-532.8448486328125	1349.5732421875	-105.6908264160156	-442.453369140625	1355.652099609375	-156.9295196533203	-461.3356018066406	1235.6611328125	-224.482421875	-433.828125	1031.895385742188	-234.8498077392578	-501.7259216308594	1015.076171875	-186.6621246337891	-317.2525024414062	805.369140625	-171.3933258056641	-349.0757751464844	785.5711669921875	-229.7028350830078	-408.7587280273438	928.1673583984375	-237.5543060302734	-341.2157287597656	716.0826416015625	-220.5844116210938	-288.9076232910156	732.16943359375	-184.0140991210938	-474.5862731933594	1367.4189453125	162.3982543945312	-498.3182373046875	1304.697998046875	225.8329010009766	-531.4714965820312	1038.765625	263.8762817382812	-561.170654296875	1033.331298828125	174.0285949707031	-435.9736938476562	801.333251953125	235.7504577636719	-481.788330078125	790.2455444335938	297.0914916992188	-515.0217895507812	969.135498046875	278.0007629394531	-452.1920471191406	625.0651245117188	245.3007049560547	-425.3211669921875	695.4879760742188	252.146240234375	-479.8465881347656	704.9383544921875	293.8136291503906	-468.6673278808594	1580.597290039062	80.49029541015625	-292.3228454589844	1584.433349609375	-29.89290237426758	-306.7670288085938	1585.972412109375	69.946044921875	-475.5111694335938	1574.662841796875	-64.14741516113281	-525.9529418945312	898.7889404296875	-144.5293731689453	-532.8936157226562	896.4257202148438	198.5067443847656	-428.9843139648438	925.7852783203125	154.5948486328125	-403.4234313964844	916.75341796875	-83.40450286865234	-482.9688110351562	433.8889770507812	-103.4157333374023	-483.7544555664062	576.6217651367188	-122.9227752685547	-687.9452514648438	53.89604949951172	-72.23434448242188	-585.3497314453125	232.3032379150391	-97.90438842773438	-485.49853515625	47.99119186401367	-11.6273250579834	-552.7400512695312	29.24967956542969	26.58868408203125	-562.7872924804688	54.31129455566406	-85.85205841064453	-726.6141967773438	53.14816284179688	-5.391501426696777	-287.6120300292969	492.5435485839844	188.6835327148438	-394.0371398925781	725.4570922851562	220.14013671875	-239.3800506591797	70.40785980224609	174.4911041259766	-245.6473693847656	381.3016052246094	184.1762390136719	-42.62153244018555	77.56517028808594	138.6589813232422	-95.22567749023438	74.50226593017578	92.85246276855469	-139.9134368896484	56.98119735717773	198.7393798828125	-287.5065612792969	71.25520324707031	124.0240783691406	-288.036865234375	647.255615234375	-159.4183502197266	nan	nan	nan	
366	3.65	-622.900634765625	950.1771850585938	90.07696533203125	-618.465576171875	958.18310546875	-40.665771484375	-616.7670288085938	1029.034790039062	24.43089485168457	-357.502197265625	1181.34130859375	16.60616493225098	-603.98828125	1147.773803710938	11.3255558013916	-530.8006591796875	1388.420288085938	-4.125251770019531	-384.666259765625	1310.423706054688	10.1521167755127	-599.9415893554688	1259.615112304688	61.98603439331055	-539.9656372070312	1351.63671875	-106.0999526977539	-449.5298461914062	1357.885498046875	-157.0883026123047	-468.8982238769531	1238.215576171875	-224.9869842529297	-443.5718078613281	1034.305053710938	-236.0423889160156	-511.4020080566406	1018.142822265625	-187.41162109375	-330.3869934082031	805.2333984375	-175.0048065185547	-362.8771057128906	786.5836181640625	-233.2218475341797	-420.0331726074219	930.3037109375	-239.5277862548828	-356.3486328125	716.8955688476562	-224.6451263427734	-303.9138488769531	731.3408203125	-188.0836334228516	-482.7153930664062	1369.55029296875	161.9900817871094	-506.6270446777344	1306.834594726562	225.3378143310547	-539.80712890625	1040.94140625	263.0878295898438	-569.4660034179688	1035.644409179688	173.2232513427734	-445.2452392578125	803.0469970703125	234.6470489501953	-490.6117248535156	792.325439453125	296.5062866210938	-523.4419555664062	971.2862548828125	277.1490173339844	-462.6830444335938	626.8638305664062	243.8751373291016	-434.1626281738281	697.518310546875	251.4724426269531	-489.2331848144531	706.8489379882812	292.947265625	-476.1943359375	1582.912353515625	80.06741333007812	-299.8672790527344	1586.135620117188	-30.26687431335449	-314.3477783203125	1587.926879882812	69.59484100341797	-483.0283203125	1576.757568359375	-64.56180572509766	-532.3690795898438	900.2788696289062	-144.8574371337891	-540.40869140625	899.1669311523438	198.0606842041016	-436.4543762207031	928.180419921875	154.1109161376953	-410.0497436523438	918.4724731445312	-83.74121856689453	-488.5899353027344	435.431640625	-103.0077972412109	-489.8502197265625	578.1343383789062	-122.5710830688477	-688.2380981445312	53.28843307495117	-71.98804473876953	-588.3010864257812	232.5891265869141	-97.41874694824219	-485.5169982910156	48.05657958984375	-11.5642671585083	-552.7424926757812	29.21443176269531	26.61453247070312	-562.9776611328125	54.36551666259766	-85.66790008544922	-726.7923583984375	51.84304428100586	-5.082693576812744	-294.9453430175781	495.0689697265625	188.1056213378906	-400.91455078125	728.2416381835938	219.4091949462891	-258.5168151855469	71.10718536376953	173.4792785644531	-256.3401184082031	382.4666748046875	183.7754974365234	-61.41022872924805	79.10488891601562	139.9962768554688	-113.3494338989258	75.41544342041016	93.35009765625	-159.2801818847656	58.0041618347168	198.7584228515625	-306.3059997558594	72.76511383056641	122.6563339233398	-303.9544982910156	646.5684814453125	-164.4254150390625	nan	nan	nan	
367	3.66	-629.793701171875	952.560791015625	89.44956970214844	-625.1395874023438	960.0924682617188	-41.23995590209961	-623.7928466796875	1031.027954101562	23.6567268371582	-364.5774841308594	1183.67578125	16.77575492858887	-611.0311279296875	1149.646728515625	10.54857063293457	-538.2427368164062	1390.361083984375	-4.569312572479248	-392.1504211425781	1312.52783203125	10.30876731872559	-607.4409790039062	1261.505126953125	61.20016479492188	-546.9966430664062	1353.65673828125	-106.471435546875	-456.4983520507812	1360.106811523438	-157.1904907226562	-476.3019714355469	1240.774169921875	-225.4656982421875	-453.1764526367188	1036.733154296875	-237.1491851806641	-520.9571533203125	1021.266845703125	-188.0914306640625	-343.6364440917969	805.0354614257812	-178.6307525634766	-376.8056335449219	787.6318969726562	-236.7423553466797	-431.2639770507812	932.4835205078125	-241.4415283203125	-371.7027893066406	717.7581787109375	-228.7373199462891	-319.2615356445312	730.3558349609375	-192.1824951171875	-490.7554626464844	1371.658813476562	161.6200103759766	-514.83984375	1308.956420898438	224.8881988525391	-548.0547485351562	1043.111206054688	262.4237060546875	-577.6172485351562	1037.909423828125	172.5283355712891	-454.120361328125	804.8746337890625	233.8065032958984	-499.1745300292969	794.3982543945312	296.019287109375	-531.7583618164062	973.4193725585938	276.451416015625	-472.3458251953125	628.8084716796875	242.6368560791016	-442.4521179199219	699.5658569335938	251.0159454345703	-498.1618347167969	708.7537231445312	292.1434326171875	-483.7211608886719	1585.151245117188	79.714599609375	-307.4024963378906	1587.893676757812	-30.55977249145508	-321.9208068847656	1589.91455078125	69.32042694091797	-490.5414428710938	1578.809814453125	-64.90686798095703	-538.848388671875	901.7503051757812	-145.0643920898438	-547.6932373046875	901.9271850585938	197.7154846191406	-443.6853637695312	930.5559692382812	153.6292419433594	-416.6426696777344	920.1611938476562	-84.06827545166016	-494.4765014648438	436.9888305664062	-102.6227340698242	-496.0921630859375	579.6400146484375	-122.169677734375	-688.5386962890625	52.71382522583008	-71.75834655761719	-591.331298828125	232.90185546875	-96.93121337890625	-485.5404968261719	48.13318634033203	-11.5028772354126	-552.7456665039062	29.17669296264648	26.63742065429688	-563.1787719726562	54.43894195556641	-85.466796875	-727.0076293945312	50.57805252075195	-4.790064811706543	-302.1817932128906	497.4945068359375	187.5523834228516	-407.5744018554688	730.9349975585938	218.5335540771484	-278.6237487792969	71.94386291503906	172.6186676025391	-267.2273559570312	383.5063171386719	183.4189300537109	-81.26351928710938	79.99832153320312	140.8761901855469	-132.6983032226562	75.84007263183594	93.54510498046875	-179.5699462890625	58.75822830200195	198.6383056640625	-326.1349792480469	74.51613616943359	121.494255065918	-320.2341613769531	645.8656005859375	-169.4812164306641	nan	nan	nan	
